<?xml version="1.0" encoding="UTF-8"?>
<svg version="1.1" xmlns="http://www.w3.org/2000/svg" width="512" height="512">
<path d="M0 0 C25.46100742 11.75195451 44.87235034 32.89229589 64.21484375 52.5625 C65.37757813 52.16417969 66.5403125 51.76585937 67.73828125 51.35546875 C78.81384102 47.6542838 89.63337826 45.03848265 101.21484375 43.5625 C102.67470703 43.36527344 102.67470703 43.36527344 104.1640625 43.1640625 C127.99123965 40.59003168 152.79524212 42.30521894 175.61791992 49.66845703 C176.42849854 49.92739746 177.23907715 50.18633789 178.07421875 50.453125 C178.78030273 50.69063477 179.48638672 50.92814453 180.21386719 51.17285156 C182.68491813 51.65403718 183.88226785 51.53157594 186.21484375 50.5625 C188.52006473 48.63912037 188.52006473 48.63912037 190.8125 46.1875 C191.69744141 45.28386719 192.58238281 44.38023438 193.49414062 43.44921875 C194.42259274 42.48767168 195.35032526 41.52542928 196.27734375 40.5625 C202.51492069 34.11294466 208.79838739 28.04869886 215.83911133 22.47412109 C217.93399449 20.78848394 219.8952489 19.04186047 221.83984375 17.1875 C225.82823734 13.66152886 230.20524349 10.78172089 234.65234375 7.875 C235.70832764 7.17914795 235.70832764 7.17914795 236.78564453 6.46923828 C245.59705663 0.81421369 253.49483274 -3.16554742 264.21484375 -1.4375 C268.79854078 0.5478538 271.21981918 4.58110708 273.21875 9.03515625 C276.69442042 17.85381807 279.40492023 26.67749792 281.40234375 35.9375 C281.55703125 36.64237549 281.71171875 37.34725098 281.87109375 38.07348633 C284.83264459 52.57703775 285.51826851 66.9486638 285.4206543 81.70996094 C285.40236406 84.55933638 285.40014591 87.40838424 285.40039062 90.2578125 C285.37842635 100.2187741 285.09620164 110.0553586 284.1706543 119.97631836 C284.23443063 125.15206717 286.12062503 128.78001093 288.5234375 133.2734375 C298.24122347 152.17037927 302.00183653 179.82010774 298.21484375 200.5625 C299.25382812 200.418125 300.2928125 200.27375 301.36328125 200.125 C322.33964154 197.2873625 322.33964154 197.2873625 327.33984375 200.6875 C329.54263267 204.06510967 329.88781114 205.60881659 329.21484375 209.5625 C327.64684751 212.36620189 326.77749258 213.38678044 323.67578125 214.35546875 C314.53588967 215.52398653 305.4151522 216.14380333 296.21484375 216.5625 C296.12847656 217.23152344 296.04210937 217.90054688 295.953125 218.58984375 C294.5953269 227.87020693 291.98807757 236.62887656 289.21484375 245.5625 C289.90707031 245.58828125 290.59929687 245.6140625 291.3125 245.640625 C297.46857812 245.99749909 303.31207057 246.8634771 309.27734375 248.375 C310.52644531 248.69082031 311.77554687 249.00664062 313.0625 249.33203125 C316.40441414 250.63649588 317.60270059 251.39748364 319.21484375 254.5625 C319.14964434 258.27886626 319.01374499 260.60996391 316.58984375 263.5 C310.35464826 266.28942956 302.91554913 263.88020647 296.52734375 262.5625 C294.66995627 262.18411962 292.81190282 261.80899021 290.953125 261.4375 C290.13884033 261.26992188 289.32455566 261.10234375 288.4855957 260.9296875 C285.94010043 260.45608032 285.94010043 260.45608032 282.21484375 260.5625 C281.74175781 261.43390625 281.26867187 262.3053125 280.78125 263.203125 C274.43628579 274.70631914 267.03380573 284.86805935 258.0625 294.50390625 C256.06918744 296.62611493 256.06918744 296.62611493 254.21484375 299.5625 C253.55484375 299.5625 252.89484375 299.5625 252.21484375 299.5625 C252.21484375 300.2225 252.21484375 300.8825 252.21484375 301.5625 C249.7903908 304.14506945 246.94638254 306.3144194 244.21484375 308.5625 C243.72145508 308.97209961 243.22806641 309.38169922 242.71972656 309.80371094 C217.68586934 330.47316334 189.03941018 343.46506534 157.21484375 349.5625 C156.39765869 349.74055176 155.58047363 349.91860352 154.73852539 350.10205078 C144.69573669 352.08877058 134.59816287 351.95916995 124.40234375 351.9375 C123.44497314 351.93695618 122.48760254 351.93641235 121.5012207 351.93585205 C107.08830467 351.89815822 93.20444214 351.34432237 79.21484375 347.5625 C78.39274414 347.34287598 77.57064453 347.12325195 76.72363281 346.89697266 C71.13170453 345.35433411 65.66170791 343.5546124 60.21484375 341.5625 C59.49635254 341.30098145 58.77786133 341.03946289 58.03759766 340.77001953 C38.52640234 333.52376482 21.70052553 322.89987174 5.72265625 309.640625 C3.97835527 308.19519179 2.19899301 306.79146648 0.39453125 305.421875 C-0.68441406 304.50148438 -0.68441406 304.50148438 -1.78515625 303.5625 C-1.78515625 302.9025 -1.78515625 302.2425 -1.78515625 301.5625 C-2.44515625 301.5625 -3.10515625 301.5625 -3.78515625 301.5625 C-3.78515625 300.9025 -3.78515625 300.2425 -3.78515625 299.5625 C-4.44515625 299.5625 -5.10515625 299.5625 -5.78515625 299.5625 C-8.3678089 297.13796894 -10.5350141 294.29251118 -12.78515625 291.5625 C-13.62820312 290.55574219 -14.47125 289.54898437 -15.33984375 288.51171875 C-22.52847649 279.75653092 -28.27080703 270.44287409 -33.78515625 260.5625 C-40.09145984 261.29479906 -46.28631944 262.33905273 -52.51757812 263.54492188 C-56.99001267 264.37104036 -61.21478772 264.85422565 -65.78515625 264.5625 C-68.19609393 262.7860196 -69.39307585 261.3466608 -70.72265625 258.6875 C-70.82248101 255.293458 -69.60423764 253.39014466 -67.78515625 250.5625 C-64.6328125 249.13671875 -64.6328125 249.13671875 -60.84765625 248.25 C-59.8575354 248.01265137 -59.8575354 248.01265137 -58.84741211 247.77050781 C-52.8736787 246.41189456 -46.89866425 245.84417821 -40.78515625 245.5625 C-40.96167725 244.96824219 -41.13819824 244.37398437 -41.32006836 243.76171875 C-42.12737983 241.03050519 -42.92506766 238.29656798 -43.72265625 235.5625 C-44.1393457 234.16064453 -44.1393457 234.16064453 -44.56445312 232.73046875 C-46.13395633 227.32230109 -47.2626125 222.17157726 -47.78515625 216.5625 C-48.9453125 216.51351562 -50.10546875 216.46453125 -51.30078125 216.4140625 C-76.16916491 215.27022884 -76.16916491 215.27022884 -79.57421875 211.671875 C-81.26315373 208.72985922 -81.26285088 206.90636244 -80.78515625 203.5625 C-79.47265625 200.6875 -79.47265625 200.6875 -76.78515625 198.5625 C-68.14293658 197.04109291 -58.40936137 199.35056653 -49.78515625 200.5625 C-49.8008667 199.91514893 -49.81657715 199.26779785 -49.83276367 198.60083008 C-50.3205987 175.25679187 -49.79115022 149.10484133 -37.28515625 128.5 C-34.30630111 122.85869662 -34.85198105 118.42872928 -35.7565918 112.36547852 C-40.35994114 79.57479573 -40.24927856 31.88584077 -21.22265625 3.375 C-15.57235542 -3.14457788 -7.69785712 -3.19789981 0 0 Z M-5.78515625 22.5625 C-15.93264354 49.75982633 -18.9338852 84.73006844 -12.44140625 112.984375 C-10.96737903 121.02133292 -11.59826402 126.39703162 -15.47265625 133.5625 C-19.73351498 141.98999237 -22.44394839 150.43559618 -24.78515625 159.5625 C-25.13707031 160.90634766 -25.13707031 160.90634766 -25.49609375 162.27734375 C-27.84614974 171.96706735 -27.92263547 181.76717209 -27.84765625 191.6875 C-27.84314453 192.83476562 -27.83863281 193.98203125 -27.83398438 195.1640625 C-27.82231964 197.96359813 -27.80595239 200.76301986 -27.78515625 203.5625 C-25.34830935 203.96267646 -22.91083534 204.3580541 -20.47265625 204.75 C-19.66610596 204.88019531 -18.85955566 205.01039063 -18.02856445 205.14453125 C-12.00922537 206.09817575 -5.98059003 206.95373283 0.05859375 207.76953125 C1.63112996 207.98458863 3.20363954 208.19984077 4.77612305 208.4152832 C7.1448131 208.73980751 9.51369352 209.06071943 11.88442993 209.3699646 C14.13789417 209.66418624 16.38923889 209.9715802 18.640625 210.28125 C19.31504639 210.3656282 19.98946777 210.45000641 20.68432617 210.53694153 C25.18319329 211.17209196 29.89038194 212.23803819 33.21484375 215.5625 C33.6818684 220.93328342 33.6818684 220.93328342 31.97265625 223.23608398 C24.84326921 228.61580062 6.62934325 223.10885927 -1.78515625 222 C-5.49254406 221.51181948 -9.20092041 221.03250307 -12.91015625 220.55859375 C-13.75698975 220.44406357 -14.60382324 220.32953339 -15.47631836 220.21153259 C-20.18462626 219.60166058 -20.18462626 219.60166058 -24.78515625 220.5625 C-23.99817794 223.31392034 -23.20577886 226.0635792 -22.41015625 228.8125 C-22.1884375 229.58980469 -21.96671875 230.36710938 -21.73828125 231.16796875 C-21.51914063 231.92207031 -21.3 232.67617188 -21.07421875 233.453125 C-20.87521973 234.14438477 -20.6762207 234.83564453 -20.47119141 235.54785156 C-19.74945189 237.66735138 -18.82868163 239.58406897 -17.78515625 241.5625 C-15.7434249 241.43856104 -13.70177963 241.31320505 -11.66015625 241.1875 C-10.98307617 241.14713623 -10.30599609 241.10677246 -9.60839844 241.06518555 C-4.46268649 240.75114092 0.67640308 240.37746086 5.81640625 239.98046875 C7.85113029 239.82869933 9.88595352 239.67835799 11.9208374 239.52874756 C13.28137888 239.42640936 14.64162156 239.32001649 16.00152588 239.20953369 C17.94160802 239.05244705 19.88291565 238.91073047 21.82421875 238.76953125 C22.95827148 238.6816333 24.09232422 238.59373535 25.26074219 238.50317383 C28.27389459 238.5636859 29.80252936 238.77740155 32.21484375 240.5625 C33.15234375 244 33.15234375 244 33.21484375 247.5625 C31.44952808 250.2104735 30.28384796 250.5394986 27.21484375 251.5625 C24.41916168 251.92211965 21.63101854 252.24445381 18.828125 252.53515625 C18.01111618 252.62252548 17.19410736 252.70989471 16.3523407 252.7999115 C13.74433069 253.07807825 11.13585677 253.35159461 8.52734375 253.625 C6.758431 253.81284485 4.98955035 254.00099222 3.22070312 254.18945312 C-1.11421877 254.65064593 -5.44956246 255.10766881 -9.78515625 255.5625 C-6.31285506 266.63782777 2.36462466 275.24402223 10.21484375 283.5625 C10.88773438 284.29984375 11.560625 285.0371875 12.25390625 285.796875 C36.80747998 311.72986298 76.84102568 328.23267874 112.23413086 329.68652344 C156.71198192 330.72052098 199.96760819 319.70050791 233.09716797 288.51879883 C234.4729962 287.20344402 235.84405881 285.8831098 237.21484375 284.5625 C237.91996094 283.92054688 238.62507813 283.27859375 239.3515625 282.6171875 C243.81278829 278.43648504 247.46116787 273.77456757 251.08984375 268.875 C251.56687744 268.23272461 252.04391113 267.59044922 252.53540039 266.92871094 C254.95299655 263.58828527 256.89960476 260.51577582 258.21484375 256.5625 C256.12989432 254.47755057 251.83007513 254.97793819 248.9453125 254.73046875 C247.23495029 254.57046916 245.52466595 254.40963541 243.81445312 254.24804688 C241.10925053 253.9964515 238.40399411 253.75014134 235.69702148 253.51831055 C233.09050447 253.29274428 230.48691697 253.04468519 227.8828125 252.79296875 C226.67168037 252.69739937 226.67168037 252.69739937 225.43608093 252.59989929 C221.76675964 252.22895838 219.70443229 251.91706843 216.6652832 249.71606445 C215.21484375 247.5625 215.21484375 247.5625 215.33984375 243.875 C215.77296875 242.2353125 215.77296875 242.2353125 216.21484375 240.5625 C219.41960895 238.9601174 222.88362441 239.37216318 226.40234375 239.375 C227.64504028 239.3740332 227.64504028 239.3740332 228.9128418 239.37304688 C237.74256923 239.44495951 246.48384844 240.26331935 255.265625 241.125 C258.93148351 241.47694441 262.52808643 241.66130757 266.21484375 241.5625 C267.20095526 239.02333825 268.17885251 236.4814977 269.15234375 233.9375 C269.43013672 233.22464844 269.70792969 232.51179687 269.99414062 231.77734375 C270.26162109 231.07480469 270.52910156 230.37226563 270.8046875 229.6484375 C271.05081787 229.0095459 271.29694824 228.3706543 271.55053711 227.71240234 C272.380215 225.02730735 272.79827448 222.33847612 273.21484375 219.5625 C268.88124355 220.01833189 264.5479845 220.4773216 260.21484375 220.9375 C258.93295166 221.07325439 257.65105957 221.20900879 256.33032227 221.34887695 C249.59144565 222.06933218 242.86856357 222.84440402 236.15234375 223.75 C222.43249751 225.47234121 222.43249751 225.47234121 218.21484375 224.5625 C215.75537476 222.0439608 215.22529047 221.0743891 215.15234375 217.5 C216.21484375 214.5625 216.21484375 214.5625 218.56982422 212.99072266 C223.50851938 211.05560097 228.35557629 210.4447901 233.59765625 209.7734375 C234.68948212 209.6246817 235.78130798 209.4759259 236.90621948 209.32266235 C240.38282815 208.85089172 243.86115948 208.39368933 247.33984375 207.9375 C250.82521681 207.47124543 254.31016924 207.00200802 257.79489136 206.53091431 C259.9602195 206.23918273 262.12600125 205.95079414 264.29226685 205.66610718 C265.76432083 205.47052719 265.76432083 205.47052719 267.26611328 205.27099609 C268.12737823 205.15791107 268.98864319 205.04482605 269.87600708 204.92831421 C272.03551646 204.59054833 274.10569506 204.1310081 276.21484375 203.5625 C276.91628829 176.63782096 274.64208343 152.9669679 262.21484375 128.5625 C259.33278241 122.44875021 260.08494359 117.02795031 261.70898438 110.60961914 C263.69272256 102.18678853 263.61041318 93.72574251 263.58984375 85.125 C263.58952652 83.90570297 263.58952652 83.90570297 263.58920288 82.66177368 C263.53603663 62.09752154 261.46057772 41.95374706 254.21484375 22.5625 C248.95778198 25.43308756 244.17510093 28.63660533 239.40234375 32.25 C238.70383301 32.77601807 238.00532227 33.30203613 237.28564453 33.84399414 C232.38396013 37.57545659 227.75886404 41.47944353 223.25 45.6796875 C221.55574812 47.24711438 219.83785314 48.69739207 218.02734375 50.125 C214.9881855 52.75893715 212.47139096 55.60186695 209.8671875 58.65625 C207.76664777 61.0795677 205.48210332 63.29524043 203.21484375 65.5625 C201.41297693 67.62463647 199.63090652 69.70141215 197.86328125 71.79296875 C194.98049364 74.88752512 192.77672919 75.9075935 188.65234375 76.0625 C182.33703094 75.97073191 176.99042336 73.99759154 171.11083984 71.91699219 C140.9860315 61.32736253 104.96039513 62.02911003 75.00390625 72.70703125 C67.52987859 75.37094791 60.75746082 77.50933589 53.15234375 74.25 C50.58718367 71.90315141 48.61675815 69.64716397 46.46484375 66.9375 C32.42720054 49.31978671 14.8968469 33.65379276 -4.78515625 22.5625 C-5.11515625 22.5625 -5.44515625 22.5625 -5.78515625 22.5625 Z " fill="#E4DEDD" transform="translate(131.78515625,80.4375)"/>
<path d="M0 0 C0.77538116 -0.00428513 1.55076233 -0.00857025 2.34963989 -0.01298523 C3.98519925 -0.01871116 5.62078406 -0.01924162 7.25634766 -0.01489258 C9.74296101 -0.01173759 12.22837769 -0.03519487 14.71484375 -0.06054688 C16.30989435 -0.06282074 17.90494811 -0.06352296 19.5 -0.0625 C20.23564178 -0.07170975 20.97128357 -0.08091949 21.72921753 -0.09040833 C26.82037041 -0.04536837 30.35629861 0.92885975 34.8828125 3.30078125 C37.3994344 5.94323425 38.77392388 7.78178506 39.0390625 11.48046875 C38.41245347 20.7856128 32.41296645 26.26298018 25.8828125 32.30078125 C24.9134375 33.04328125 23.9440625 33.78578125 22.9453125 34.55078125 C20.56577519 36.56978261 20.3803953 37.30446745 19.8828125 40.30078125 C19.82884525 46.23717852 20.79977579 50.79897155 24.8828125 55.30078125 C30.5365279 59.46106239 36.96902572 60.54664849 43.8828125 60.30078125 C50.049828 59.22369817 53.7273661 57.04986285 57.8828125 52.30078125 C60.52830054 49.74347614 61.6477683 49.33016177 65.3828125 48.86328125 C68.8828125 49.30078125 68.8828125 49.30078125 71.2578125 50.86328125 C73.53048605 54.27229158 74.01822176 56.17079894 73.8828125 60.30078125 C70.56043963 67.99046685 64.54465634 72.95802203 56.91625977 76.11450195 C51.35845426 78.15962392 46.34580006 78.81397474 40.4453125 78.73828125 C39.61273926 78.73070801 38.78016602 78.72313477 37.92236328 78.71533203 C28.16752344 78.45395651 21.58769501 75.18784574 13.79296875 69.47265625 C11.83012119 68.03931631 11.83012119 68.03931631 8.8828125 68.30078125 C7.13731994 69.34521532 5.43358302 70.46029384 3.7578125 71.61328125 C-7.49883181 78.84446758 -19.28865043 80.34262522 -32.4453125 77.609375 C-40.32899484 74.97781064 -47.5325239 70.35410986 -52.1171875 63.30078125 C-53.5546875 60.36328125 -53.5546875 60.36328125 -54.1171875 57.30078125 C-52.65221588 53.29138523 -51.69314947 51.6847559 -48.1171875 49.30078125 C-44.8671875 48.73828125 -44.8671875 48.73828125 -41.1171875 49.30078125 C-39.13976652 50.905023 -37.5050644 52.66762514 -35.7890625 54.546875 C-31.60936525 58.93165085 -26.59802826 59.9321281 -20.77734375 60.37109375 C-14.68982829 60.21019026 -7.86326566 58.1839361 -3.1171875 54.30078125 C0.60370571 49.16851475 0.84347335 43.41322137 -0.1171875 37.30078125 C-1.94436898 34.46877333 -1.94436898 34.46877333 -5.1171875 32.30078125 C-6.84003996 30.83855138 -8.54711279 29.35762343 -10.2421875 27.86328125 C-11.09039062 27.14269531 -11.93859375 26.42210937 -12.8125 25.6796875 C-16.41143261 21.96485706 -18.54146539 18.02560681 -18.6171875 12.80078125 C-18.49975127 9.48460578 -17.96861278 7.4939451 -15.9296875 4.86328125 C-10.97633276 0.35022471 -6.51438251 -0.00802668 0 0 Z " fill="#E4DFDE" transform="translate(246.1171875,277.69921875)"/>
<path d="M0 0 C8.18950618 4.94955003 12.67623332 12.43466586 15.0390625 21.5625 C16.80909228 30.63390261 14.60719515 38.925291 9.8203125 46.77734375 C6.12845479 51.99209276 1.51875757 54.96119539 -4.4921875 56.96484375 C-10.90315082 57.77489327 -15.8889048 57.10665246 -21.38671875 53.6328125 C-29.29863141 47.36493364 -32.48751462 39.66261907 -33.76953125 29.83984375 C-34.24809709 20.34509748 -30.25707808 12.35721609 -24.2421875 5.33984375 C-17.25900601 -0.69108572 -8.9943469 -3.73589644 0 0 Z " fill="#E4DEDD" transform="translate(197.4921875,219.03515625)"/>
<path d="M0 0 C7.23952435 4.25767108 11.55163584 10.60362905 14.09375 18.50390625 C16.32100401 28.67238142 15.15462763 38.44617745 9.5625 47.25 C6.04539436 51.846825 1.18329429 54.6889019 -4.25 56.5 C-11.10058288 57.24224788 -16.62448711 56.64019036 -22.25 52.5 C-28.81887892 46.66995204 -32.57885365 39.89449709 -33.6640625 31.171875 C-34.05310155 21.87588933 -32.30005651 13.79332967 -26.5703125 6.3046875 C-19.3776576 -1.33551037 -10.00113806 -4.37793008 0 0 Z " fill="#E3DEDD" transform="translate(333.25,219.5)"/>
<path d="M0 0 C5.77807024 -0.2358396 10.51324804 0.13216954 16 2 C16 2.66 16 3.32 16 4 C10.72 3.34 5.44 2.68 0 2 C0 1.34 0 0.68 0 0 Z " fill="#EAE7E7" transform="translate(130,301)"/>
<path d="M0 0 C0 0.66 0 1.32 0 2 C-3.36999202 4.24666134 -4.56105462 4.2457371 -8.5 4.1875 C-9.93859375 4.17783203 -9.93859375 4.17783203 -11.40625 4.16796875 C-14 4 -14 4 -17 3 C-17 2.34 -17 1.68 -17 1 C-16.33613281 1.09539062 -15.67226563 1.19078125 -14.98828125 1.2890625 C-9.24733026 2.00982423 -5.22738377 0 0 0 Z " fill="#E9E7E6" transform="translate(328,153)"/>
<path d="M0 0 C0 0.66 0 1.32 0 2 C-1.36125 2.6496875 -1.36125 2.6496875 -2.75 3.3125 C-5.43218449 4.70517271 -7.66139605 6.11112757 -10 8 C-9.875 6.25 -9.875 6.25 -9 4 C-3.88888889 0 -3.88888889 0 0 0 Z " fill="#EAE6E5" transform="translate(184,219)"/>
<path d="M0 0 C2.1991413 4.39828259 2.51855059 7.18550592 3 12 C2.34 12 1.68 12 1 12 C1 11.01 1 10.02 1 9 C0.34 9 -0.32 9 -1 9 C-0.67 6.03 -0.34 3.06 0 0 Z " fill="#DAD7D7" transform="translate(411,111)"/>
<path d="M0 0 C2.31 0 4.62 0 7 0 C7 0.99 7 1.98 7 3 C6.05125 2.979375 5.1025 2.95875 4.125 2.9375 C1.09333717 2.77448174 1.09333717 2.77448174 -1 4 C-0.67 2.68 -0.34 1.36 0 0 Z " fill="#D8D5D5" transform="translate(55,279)"/>
<path d="M0 0 C2.32590854 3.63423209 2.16265833 6.77088331 2 11 C1.01 11.495 1.01 11.495 0 12 C-0.19573608 10.56359829 -0.38127816 9.12580496 -0.5625 7.6875 C-0.66691406 6.88699219 -0.77132812 6.08648437 -0.87890625 5.26171875 C-1 3 -1 3 0 0 Z " fill="#DAD6D6" transform="translate(96,178)"/>
<path d="M0 0 C2.45823172 3.68734758 3.01242616 6.69699971 4 11 C3.01 11.495 3.01 11.495 2 12 C0.86235649 7.73383684 0 4.43513689 0 0 Z " fill="#D4D2D1" transform="translate(108,305)"/>
<path d="M0 0 C0.99 0 1.98 0 3 0 C3.33 2.97 3.66 5.94 4 9 C3.34 7.68 2.68 6.36 2 5 C1.34 4.67 0.68 4.34 0 4 C0 2.68 0 1.36 0 0 Z " fill="#D7D3D3" transform="translate(116,188)"/>
</svg>
